<svg xmlns="http://www.w3.org/2000/svg" xmlns:xlink="http://www.w3.org/1999/xlink" width="2000" zoomAndPan="magnify" viewBox="0 0 1500 1499.999933" height="2000" preserveAspectRatio="xMidYMid meet" version="1.0"><defs><g/><clipPath id="f257c9a721"><path d="M 449 730 L 552 730 L 552 917 L 449 917 Z M 449 730 " clip-rule="nonzero"/></clipPath><clipPath id="3ee154c480"><path d="M 385.367188 703.371094 L 650.488281 750.335938 L 616.347656 943.085938 L 351.226562 896.121094 Z M 385.367188 703.371094 " clip-rule="nonzero"/></clipPath><clipPath id="acd758436e"><path d="M 385.367188 703.371094 L 650.488281 750.335938 L 616.347656 943.085938 L 351.226562 896.121094 Z M 385.367188 703.371094 " clip-rule="nonzero"/></clipPath><clipPath id="bb80e107d1"><path d="M 550 764 L 634 764 L 634 909 L 550 909 Z M 550 764 " clip-rule="nonzero"/></clipPath><clipPath id="502f4a0eb0"><path d="M 385.367188 703.371094 L 650.488281 750.335938 L 616.347656 943.085938 L 351.226562 896.121094 Z M 385.367188 703.371094 " clip-rule="nonzero"/></clipPath><clipPath id="bef738acb6"><path d="M 385.367188 703.371094 L 650.488281 750.335938 L 616.347656 943.085938 L 351.226562 896.121094 Z M 385.367188 703.371094 " clip-rule="nonzero"/></clipPath><clipPath id="35a4bd51de"><path d="M 367 737 L 451 737 L 451 883 L 367 883 Z M 367 737 " clip-rule="nonzero"/></clipPath><clipPath id="73b64a622f"><path d="M 385.367188 703.371094 L 650.488281 750.335938 L 616.347656 943.085938 L 351.226562 896.121094 Z M 385.367188 703.371094 " clip-rule="nonzero"/></clipPath><clipPath id="d1861ec455"><path d="M 385.367188 703.371094 L 650.488281 750.335938 L 616.347656 943.085938 L 351.226562 896.121094 Z M 385.367188 703.371094 " clip-rule="nonzero"/></clipPath><clipPath id="69cd90d4d7"><rect x="0" width="472" y="0" height="291"/></clipPath><clipPath id="7204878d3d"><rect x="0" width="435" y="0" height="291"/></clipPath></defs><g clip-path="url(#f257c9a721)"><g clip-path="url(#3ee154c480)"><g clip-path="url(#acd758436e)"><path fill="#ffd230" d="M 462.578125 915.78125 C 461.324219 915.5625 460.089844 915.179688 458.882812 914.632812 C 451.207031 911.125 447.824219 902.054688 451.34375 894.382812 L 522.273438 739.308594 C 525.792969 731.640625 534.921875 728.265625 542.519531 731.769531 C 550.195312 735.277344 553.578125 744.347656 550.058594 752.019531 L 479.128906 907.09375 C 476.171875 913.558594 469.273438 916.96875 462.578125 915.78125 Z M 462.578125 915.78125 " fill-opacity="1" fill-rule="nonzero"/></g></g></g><g clip-path="url(#bb80e107d1)"><g clip-path="url(#502f4a0eb0)"><g clip-path="url(#bef738acb6)"><path fill="#ffd230" d="M 563.148438 908.761719 C 559.644531 908.140625 556.347656 906.304688 553.945312 903.320312 C 548.636719 896.753906 549.644531 887.136719 556.210938 881.816406 L 600.140625 846.296875 C 603.273438 843.773438 604.101562 839.089844 602.03125 835.640625 L 572.972656 787.195312 C 568.628906 779.957031 570.988281 770.566406 578.226562 766.222656 C 585.457031 761.863281 594.859375 764.238281 599.191406 771.460938 L 628.25 819.910156 C 638.140625 836.414062 634.320312 857.976562 619.363281 870.066406 L 575.433594 905.585938 C 571.839844 908.488281 567.351562 909.507812 563.148438 908.761719 Z M 563.148438 908.761719 " fill-opacity="1" fill-rule="nonzero"/></g></g></g><g clip-path="url(#35a4bd51de)"><g clip-path="url(#73b64a622f)"><g clip-path="url(#d1861ec455)"><path fill="#ffd230" d="M 412.652344 882.105469 C 408.449219 881.359375 404.570312 878.859375 402.203125 874.914062 L 373.148438 826.46875 C 363.253906 809.960938 367.074219 788.398438 382.03125 776.308594 L 425.972656 740.792969 C 432.550781 735.488281 442.179688 736.511719 447.460938 743.070312 C 452.769531 749.636719 451.746094 759.253906 445.183594 764.558594 L 401.253906 800.078125 C 398.125 802.605469 397.292969 807.289062 399.367188 810.734375 L 428.421875 859.179688 C 432.765625 866.417969 430.40625 875.8125 423.167969 880.15625 C 419.886719 882.132812 416.15625 882.726562 412.652344 882.105469 Z M 412.652344 882.105469 " fill-opacity="1" fill-rule="nonzero"/></g></g></g><g transform="matrix(1, 0, 0, 1, 469, 507)"><g clip-path="url(#69cd90d4d7)"><g fill="#ffffff" fill-opacity="1"><g transform="translate(10.738103, 209.128351)"><g><path d="M 110.65625 -190.578125 L 187.578125 0 L 140.90625 0 L 126.8125 -38.109375 L 54.28125 -38.109375 L 40.1875 0 L -6.46875 0 L 70.453125 -190.578125 Z M 112.03125 -76.234375 L 90.78125 -131.671875 L 90.328125 -131.671875 L 69.0625 -76.234375 Z M 112.03125 -76.234375 "/></g></g></g><g fill="#ffffff" fill-opacity="1"><g transform="translate(180.518522, 209.128351)"><g><path d="M 13.859375 0 L 13.859375 -118.5 L 54.75 -118.5 L 54.75 -106.03125 L 55.203125 -106.03125 C 65.828125 -116.65625 77.148438 -121.96875 89.171875 -121.96875 C 95.015625 -121.96875 100.820312 -121.195312 106.59375 -119.65625 C 112.375 -118.113281 117.921875 -115.722656 123.234375 -112.484375 C 128.546875 -109.253906 132.859375 -104.675781 136.171875 -98.75 C 139.484375 -92.820312 141.140625 -85.929688 141.140625 -78.078125 L 141.140625 0 L 100.25 0 L 100.25 -66.984375 C 100.25 -73.148438 98.285156 -78.539062 94.359375 -83.15625 C 90.429688 -87.78125 85.3125 -90.09375 79 -90.09375 C 72.84375 -90.09375 67.257812 -87.703125 62.25 -82.921875 C 57.25 -78.148438 54.75 -72.835938 54.75 -66.984375 L 54.75 0 Z M 13.859375 0 "/></g></g></g><g fill="#ffffff" fill-opacity="1"><g transform="translate(321.886514, 209.128351)"><g><path d="M 21.9375 -14.65625 C 10.851562 -26.75 5.3125 -41.570312 5.3125 -59.125 C 5.3125 -76.6875 10.851562 -91.550781 21.9375 -103.71875 C 33.03125 -115.882812 47.125 -121.96875 64.21875 -121.96875 C 79.925781 -121.96875 92.863281 -117.039062 103.03125 -107.1875 L 103.03125 -118.5 L 143.90625 -118.5 L 143.90625 0 L 103.484375 0 L 103.484375 -13.390625 L 103.03125 -13.390625 C 92.863281 -2.148438 79.925781 3.46875 64.21875 3.46875 C 47.125 3.46875 33.03125 -2.570312 21.9375 -14.65625 Z M 56.703125 -79.234375 C 51.390625 -73.992188 48.734375 -67.289062 48.734375 -59.125 C 48.734375 -50.96875 51.273438 -44.3125 56.359375 -39.15625 C 61.441406 -34 68.144531 -31.421875 76.46875 -31.421875 C 84.46875 -31.421875 91.046875 -34.035156 96.203125 -39.265625 C 101.367188 -44.503906 103.953125 -51.128906 103.953125 -59.140625 C 103.953125 -67.296875 101.296875 -73.992188 95.984375 -79.234375 C 90.671875 -84.472656 84.164062 -87.09375 76.46875 -87.09375 C 68.613281 -87.09375 62.023438 -84.472656 56.703125 -79.234375 Z M 56.703125 -79.234375 "/></g></g></g></g></g><g transform="matrix(1, 0, 0, 1, 645, 702)"><g clip-path="url(#7204878d3d)"><g fill="#ffffff" fill-opacity="1"><g transform="translate(1.809626, 209.585542)"><g><path d="M 21.9375 -14.65625 C 10.851562 -26.75 5.3125 -41.570312 5.3125 -59.125 C 5.3125 -76.6875 10.851562 -91.550781 21.9375 -103.71875 C 33.03125 -115.882812 47.125 -121.96875 64.21875 -121.96875 C 79.925781 -121.96875 92.863281 -117.039062 103.03125 -107.1875 L 103.03125 -198.65625 L 143.90625 -198.65625 L 143.90625 0 L 103.484375 0 L 103.484375 -13.390625 L 103.03125 -13.390625 C 92.863281 -2.148438 79.925781 3.46875 64.21875 3.46875 C 47.125 3.46875 33.03125 -2.570312 21.9375 -14.65625 Z M 56.703125 -79.234375 C 51.390625 -73.992188 48.734375 -67.289062 48.734375 -59.125 C 48.734375 -50.96875 51.273438 -44.3125 56.359375 -39.15625 C 61.441406 -34 68.144531 -31.421875 76.46875 -31.421875 C 84.46875 -31.421875 91.046875 -34.035156 96.203125 -39.265625 C 101.367188 -44.503906 103.953125 -51.128906 103.953125 -59.140625 C 103.953125 -67.296875 101.296875 -73.992188 95.984375 -79.234375 C 90.671875 -84.472656 84.164062 -87.09375 76.46875 -87.09375 C 68.613281 -87.09375 62.023438 -84.472656 56.703125 -79.234375 Z M 56.703125 -79.234375 "/></g></g></g><g fill="#ffffff" fill-opacity="1"><g transform="translate(148.259513, 209.585542)"><g><path d="M 133.75 -53.59375 L 47.8125 -53.59375 C 47.8125 -45.28125 50.503906 -39.117188 55.890625 -35.109375 C 61.285156 -31.109375 67.140625 -29.109375 73.453125 -29.109375 C 80.078125 -29.109375 85.3125 -29.992188 89.15625 -31.765625 C 93.007812 -33.535156 97.398438 -37.035156 102.328125 -42.265625 L 131.90625 -27.484375 C 119.582031 -6.847656 99.097656 3.46875 70.453125 3.46875 C 52.585938 3.46875 37.265625 -2.648438 24.484375 -14.890625 C 11.703125 -27.140625 5.3125 -41.890625 5.3125 -59.140625 C 5.3125 -76.390625 11.703125 -91.171875 24.484375 -103.484375 C 37.265625 -115.804688 52.585938 -121.96875 70.453125 -121.96875 C 89.242188 -121.96875 104.53125 -116.535156 116.3125 -105.671875 C 128.09375 -94.816406 133.984375 -79.304688 133.984375 -59.140625 C 133.984375 -56.367188 133.90625 -54.519531 133.75 -53.59375 Z M 48.96875 -76.234375 L 94.015625 -76.234375 C 93.085938 -82.390625 90.660156 -87.125 86.734375 -90.4375 C 82.804688 -93.75 77.765625 -95.40625 71.609375 -95.40625 C 64.835938 -95.40625 59.445312 -93.632812 55.4375 -90.09375 C 51.4375 -86.550781 49.28125 -81.929688 48.96875 -76.234375 Z M 48.96875 -76.234375 "/></g></g></g><g fill="#ffffff" fill-opacity="1"><g transform="translate(276.229768, 209.585542)"><g><path d="M 43.890625 -118.5 L 72.765625 -54.046875 L 101.640625 -118.5 L 150.15625 -118.5 L 86.625 0 L 58.90625 0 L -4.625 -118.5 Z M 43.890625 -118.5 "/></g></g></g></g></g></svg>